# xmcd CD database file
#
# Track frame offsets:
#	150
#	13521
#	30553
#	43528
#	57864
#	69905
#	82376
#	94675
#	108478
#	122647
#	139033
#	151589
#	164312
#
# Disc length: 2337 seconds
#
# Revision: 0
# Processed by: cddbd v1.5.2PL0 Copyright (c) Steve Scherf et al.
# Submitted via: CDex 1.70beta2
#
DISCID=9d091f0d
DTITLE=Country and Western - Flophouse String Band - A Country Journey
DYEAR=1997
DGENRE=Country
TTITLE0=The Hand That Rocks The Cradle
TTITLE1=All You Ever Do Is Bring Me Down
TTITLE2=North To Alaska
TTITLE3=Big, Big Love
TTITLE4=Time You Learned About Goodbye
TTITLE5=Home On The Range
TTITLE6=Little Bitty
TTITLE7=Thank God For The Radio
TTITLE8=Writing On The Wall
TTITLE9=Jackson
TTITLE10=K-I-S-S-I-N-G
TTITLE11=Summer's Coming
TTITLE12=To Old To Die Young
EXTD=YEAR: 1997
EXTT0=
EXTT1=
EXTT2=
EXTT3=
EXTT4=
EXTT5=
EXTT6=
EXTT7=
EXTT8=
EXTT9=
EXTT10=
EXTT11=
EXTT12=
PLAYORDER=
